<?xml version="1.0" standalone="no"?>
<!DOCTYPE svg PUBLIC "-//W3C//DTD SVG 20010904//EN"
 "http://www.w3.org/TR/2001/REC-SVG-20010904/DTD/svg10.dtd">
<svg version="1.0" xmlns="http://www.w3.org/2000/svg"
 width="314.000000pt" height="314.000000pt" viewBox="0 0 314.000000 314.000000"
 preserveAspectRatio="xMidYMid meet">
<metadata>
Created by potrace 1.14, written by Peter Selinger 2001-2017
</metadata>
<g transform="translate(0.000000,314.000000) scale(0.100000,-0.100000)"
fill="#000000" stroke="none">
<path d="M1385 3129 c-27 -5 -68 -11 -90 -14 -275 -40 -604 -209 -815 -418
-80 -78 -140 -144 -140 -153 0 -3 -9 -15 -21 -27 -27 -30 -129 -191 -129 -206
0 -6 -5 -11 -11 -11 -5 0 -7 -4 -4 -10 3 -5 1 -10 -5 -10 -6 0 -8 -4 -5 -10 3
-5 1 -10 -4 -10 -6 0 -10 -3 -9 -7 1 -5 -5 -21 -14 -38 -47 -89 -97 -263 -123
-430 -12 -77 -12 -368 0 -445 33 -213 140 -486 251 -643 19 -26 34 -49 34 -52
0 -3 8 -13 18 -23 9 -11 31 -37 49 -58 62 -78 178 -190 247 -239 16 -11 34
-26 41 -33 8 -6 18 -12 24 -12 6 0 11 -4 11 -9 0 -5 15 -16 33 -25 17 -9 41
-22 52 -29 49 -29 65 -37 69 -35 2 2 13 -6 25 -16 12 -11 21 -16 21 -13 0 4
20 -5 45 -19 25 -13 45 -22 45 -18 0 4 6 2 13 -3 13 -11 78 -34 87 -31 3 1 14
-4 26 -10 11 -6 32 -13 45 -16 13 -3 35 -8 49 -11 14 -3 39 -8 55 -11 17 -3
37 -7 45 -10 70 -24 406 -25 535 -1 331 60 622 212 850 443 33 33 74 78 90 99
34 42 60 74 75 92 5 7 10 16 10 22 0 5 4 11 10 13 16 5 139 239 160 304 7 21
16 44 21 49 4 6 10 22 13 35 3 14 12 50 21 80 8 30 17 66 20 80 3 14 7 36 10
49 19 98 27 363 13 476 -42 339 -205 671 -449 914 -85 85 -126 121 -138 121
-6 0 -11 4 -11 9 0 5 -17 20 -37 32 -21 13 -44 29 -50 35 -7 7 -26 18 -43 26
-16 7 -30 16 -30 20 0 5 -5 8 -11 8 -6 0 -23 9 -39 20 -15 11 -30 17 -34 13
-3 -3 -6 -1 -6 5 0 7 -3 11 -7 10 -5 -1 -30 9 -58 22 -27 13 -52 24 -55 25 -3
1 -14 5 -25 9 -45 17 -50 19 -57 21 -5 2 -9 3 -10 5 -2 1 -10 3 -18 5 -8 2
-42 11 -75 21 -68 18 -75 20 -165 35 -78 14 -355 19 -425 8z"/>
</g>
</svg>
